<svg xmlns="http://www.w3.org/2000/svg" version="1.1" xmlns:xlink="http://www.w3.org/1999/xlink" xmlns:svgjs="http://svgjs.com/svgjs" width="1920" height="100" preserveAspectRatio="none" viewBox="0 0 1920 100"><g mask="url(&quot;#SvgjsMask1006&quot;)" fill="none"><path d="M-95.68 110.65L-95.68 110.65" stroke="rgba(6, 59, 103, 1)" stroke-width="1.5"></path><path d="M-95.68 110.65L-102.52 207.36" stroke="rgba(6, 59, 103, 1)" stroke-width="1.5"></path><path d="M-95.68 110.65L240.55 221.07" stroke="rgba(6, 59, 103, 1)" stroke-width="1.5"></path><path d="M-95.68 110.65L400.47 232.46" stroke="rgba(6, 59, 103, 1)" stroke-width="1.5"></path><path d="M-102.52 207.36L-102.52 207.36" stroke="rgba(6, 59, 103, 1)" stroke-width="1.5"></path><path d="M-102.52 207.36L240.55 221.07" stroke="rgba(6, 59, 103, 1)" stroke-width="1.5"></path><path d="M-102.52 207.36L400.47 232.46" stroke="rgba(6, 59, 103, 1)" stroke-width="1.5"></path><path d="M240.55 221.07L240.55 221.07" stroke="rgba(6, 59, 103, 1)" stroke-width="1.5"></path><path d="M240.55 221.07L400.47 232.46" stroke="rgba(6, 59, 103, 1)" stroke-width="1.5"></path><path d="M240.55 221.07L499.56 229.78" stroke="rgba(6, 59, 103, 1)" stroke-width="1.5"></path><path d="M240.55 221.07L507.29 88.67" stroke="rgba(6, 59, 103, 1)" stroke-width="1.5"></path><path d="M400.47 232.46L400.47 232.46" stroke="rgba(6, 59, 103, 1)" stroke-width="1.5"></path><path d="M400.47 232.46L499.56 229.78" stroke="rgba(6, 59, 103, 1)" stroke-width="1.5"></path><path d="M400.47 232.46L507.29 88.67" stroke="rgba(6, 59, 103, 1)" stroke-width="1.5"></path><path d="M400.47 232.46L653.36 205.44" stroke="rgba(6, 59, 103, 1)" stroke-width="1.5"></path><path d="M400.47 232.46L648.57 77.94" stroke="rgba(6, 59, 103, 1)" stroke-width="1.5"></path><path d="M400.47 232.46L790.29 239.69" stroke="rgba(6, 59, 103, 1)" stroke-width="1.5"></path><path d="M507.29 88.67L507.29 88.67" stroke="rgba(6, 59, 103, 1)" stroke-width="1.5"></path><path d="M507.29 88.67L499.56 229.78" stroke="rgba(6, 59, 103, 1)" stroke-width="1.5"></path><path d="M507.29 88.67L648.57 77.94" stroke="rgba(6, 59, 103, 1)" stroke-width="1.5"></path><path d="M507.29 88.67L653.36 205.44" stroke="rgba(6, 59, 103, 1)" stroke-width="1.5"></path><path d="M507.29 88.67L812.54 101.16" stroke="rgba(6, 59, 103, 1)" stroke-width="1.5"></path><path d="M499.56 229.78L499.56 229.78" stroke="rgba(6, 59, 103, 1)" stroke-width="1.5"></path><path d="M499.56 229.78L653.36 205.44" stroke="rgba(6, 59, 103, 1)" stroke-width="1.5"></path><path d="M499.56 229.78L648.57 77.94" stroke="rgba(6, 59, 103, 1)" stroke-width="1.5"></path><path d="M648.57 77.94L648.57 77.94" stroke="rgba(6, 59, 103, 1)" stroke-width="1.5"></path><path d="M648.57 77.94L653.36 205.44" stroke="rgba(6, 59, 103, 1)" stroke-width="1.5"></path><path d="M648.57 77.94L812.54 101.16" stroke="rgba(6, 59, 103, 1)" stroke-width="1.5"></path><path d="M648.57 77.94L790.29 239.69" stroke="rgba(6, 59, 103, 1)" stroke-width="1.5"></path><path d="M653.36 205.44L653.36 205.44" stroke="rgba(6, 59, 103, 1)" stroke-width="1.5"></path><path d="M812.54 101.16L812.54 101.16" stroke="rgba(6, 59, 103, 1)" stroke-width="1.5"></path><path d="M812.54 101.16L790.29 239.69" stroke="rgba(6, 59, 103, 1)" stroke-width="1.5"></path><path d="M812.54 101.16L937.58 187.7" stroke="rgba(6, 59, 103, 1)" stroke-width="1.5"></path><path d="M812.54 101.16L653.36 205.44" stroke="rgba(6, 59, 103, 1)" stroke-width="1.5"></path><path d="M812.54 101.16L1010.86 90.37" stroke="rgba(6, 59, 103, 1)" stroke-width="1.5"></path><path d="M790.29 239.69L790.29 239.69" stroke="rgba(6, 59, 103, 1)" stroke-width="1.5"></path><path d="M790.29 239.69L653.36 205.44" stroke="rgba(6, 59, 103, 1)" stroke-width="1.5"></path><path d="M790.29 239.69L937.58 187.7" stroke="rgba(6, 59, 103, 1)" stroke-width="1.5"></path><path d="M790.29 239.69L1010.86 90.37" stroke="rgba(6, 59, 103, 1)" stroke-width="1.5"></path><path d="M1010.86 90.37L1010.86 90.37" stroke="rgba(6, 59, 103, 1)" stroke-width="1.5"></path><path d="M1010.86 90.37L937.58 187.7" stroke="rgba(6, 59, 103, 1)" stroke-width="1.5"></path><path d="M1010.86 90.37L1133.06 93.27" stroke="rgba(6, 59, 103, 1)" stroke-width="1.5"></path><path d="M937.58 187.7L937.58 187.7" stroke="rgba(6, 59, 103, 1)" stroke-width="1.5"></path><path d="M1133.06 93.27L1133.06 93.27" stroke="rgba(6, 59, 103, 1)" stroke-width="1.5"></path><path d="M1133.06 93.27L1106.9 202.44" stroke="rgba(6, 59, 103, 1)" stroke-width="1.5"></path><path d="M1133.06 93.27L1290.82 93.63" stroke="rgba(6, 59, 103, 1)" stroke-width="1.5"></path><path d="M1133.06 93.27L1307.21 197.22" stroke="rgba(6, 59, 103, 1)" stroke-width="1.5"></path><path d="M1133.06 93.27L937.58 187.7" stroke="rgba(6, 59, 103, 1)" stroke-width="1.5"></path><path d="M1133.06 93.27L1263.23 -93.74" stroke="rgba(6, 59, 103, 1)" stroke-width="1.5"></path><path d="M1106.9 202.44L1106.9 202.44" stroke="rgba(6, 59, 103, 1)" stroke-width="1.5"></path><path d="M1106.9 202.44L1010.86 90.37" stroke="rgba(6, 59, 103, 1)" stroke-width="1.5"></path><path d="M1106.9 202.44L937.58 187.7" stroke="rgba(6, 59, 103, 1)" stroke-width="1.5"></path><path d="M1106.9 202.44L1307.21 197.22" stroke="rgba(6, 59, 103, 1)" stroke-width="1.5"></path><path d="M1263.23 -93.74L1263.23 -93.74" stroke="rgba(6, 59, 103, 1)" stroke-width="1.5"></path><path d="M1263.23 -93.74L1446.04 -44.56" stroke="rgba(6, 59, 103, 1)" stroke-width="1.5"></path><path d="M1263.23 -93.74L1290.82 93.63" stroke="rgba(6, 59, 103, 1)" stroke-width="1.5"></path><path d="M1263.23 -93.74L1434.81 41.18" stroke="rgba(6, 59, 103, 1)" stroke-width="1.5"></path><path d="M1290.82 93.63L1290.82 93.63" stroke="rgba(6, 59, 103, 1)" stroke-width="1.5"></path><path d="M1290.82 93.63L1307.21 197.22" stroke="rgba(6, 59, 103, 1)" stroke-width="1.5"></path><path d="M1290.82 93.63L1434.81 41.18" stroke="rgba(6, 59, 103, 1)" stroke-width="1.5"></path><path d="M1307.21 197.22L1307.21 197.22" stroke="rgba(6, 59, 103, 1)" stroke-width="1.5"></path><path d="M1307.21 197.22L1434.45 227.38" stroke="rgba(6, 59, 103, 1)" stroke-width="1.5"></path><path d="M1446.04 -44.56L1446.04 -44.56" stroke="rgba(6, 59, 103, 1)" stroke-width="1.5"></path><path d="M1446.04 -44.56L1434.81 41.18" stroke="rgba(6, 59, 103, 1)" stroke-width="1.5"></path><path d="M1446.04 -44.56L1549.87 -55.04" stroke="rgba(6, 59, 103, 1)" stroke-width="1.5"></path><path d="M1434.81 41.18L1434.81 41.18" stroke="rgba(6, 59, 103, 1)" stroke-width="1.5"></path><path d="M1434.81 41.18L1577.18 77.61" stroke="rgba(6, 59, 103, 1)" stroke-width="1.5"></path><path d="M1434.45 227.38L1434.45 227.38" stroke="rgba(6, 59, 103, 1)" stroke-width="1.5"></path><path d="M1434.45 227.38L1549.61 204.17" stroke="rgba(6, 59, 103, 1)" stroke-width="1.5"></path><path d="M1434.45 227.38L1434.81 41.18" stroke="rgba(6, 59, 103, 1)" stroke-width="1.5"></path><path d="M1434.45 227.38L1290.82 93.63" stroke="rgba(6, 59, 103, 1)" stroke-width="1.5"></path><path d="M1434.45 227.38L1577.18 77.61" stroke="rgba(6, 59, 103, 1)" stroke-width="1.5"></path><path d="M1434.45 227.38L1705.01 226.66" stroke="rgba(6, 59, 103, 1)" stroke-width="1.5"></path><path d="M1549.87 -55.04L1549.87 -55.04" stroke="rgba(6, 59, 103, 1)" stroke-width="1.5"></path><path d="M1549.87 -55.04L1577.18 77.61" stroke="rgba(6, 59, 103, 1)" stroke-width="1.5"></path><path d="M1549.87 -55.04L1434.81 41.18" stroke="rgba(6, 59, 103, 1)" stroke-width="1.5"></path><path d="M1549.87 -55.04L1707.38 -89.31" stroke="rgba(6, 59, 103, 1)" stroke-width="1.5"></path><path d="M1577.18 77.61L1577.18 77.61" stroke="rgba(6, 59, 103, 1)" stroke-width="1.5"></path><path d="M1577.18 77.61L1549.61 204.17" stroke="rgba(6, 59, 103, 1)" stroke-width="1.5"></path><path d="M1577.18 77.61L1446.04 -44.56" stroke="rgba(6, 59, 103, 1)" stroke-width="1.5"></path><path d="M1577.18 77.61L1757.22 85.57" stroke="rgba(6, 59, 103, 1)" stroke-width="1.5"></path><path d="M1577.18 77.61L1705.01 226.66" stroke="rgba(6, 59, 103, 1)" stroke-width="1.5"></path><path d="M1549.61 204.17L1549.61 204.17" stroke="rgba(6, 59, 103, 1)" stroke-width="1.5"></path><path d="M1549.61 204.17L1705.01 226.66" stroke="rgba(6, 59, 103, 1)" stroke-width="1.5"></path><path d="M1549.61 204.17L1434.81 41.18" stroke="rgba(6, 59, 103, 1)" stroke-width="1.5"></path><path d="M1549.61 204.17L1757.22 85.57" stroke="rgba(6, 59, 103, 1)" stroke-width="1.5"></path><path d="M1549.61 204.17L1307.21 197.22" stroke="rgba(6, 59, 103, 1)" stroke-width="1.5"></path><path d="M1707.38 -89.31L1707.38 -89.31" stroke="rgba(6, 59, 103, 1)" stroke-width="1.5"></path><path d="M1707.38 -89.31L1880.57 -69.64" stroke="rgba(6, 59, 103, 1)" stroke-width="1.5"></path><path d="M1707.38 -89.31L1757.22 85.57" stroke="rgba(6, 59, 103, 1)" stroke-width="1.5"></path><path d="M1757.22 85.57L1757.22 85.57" stroke="rgba(6, 59, 103, 1)" stroke-width="1.5"></path><path d="M1757.22 85.57L1875.76 81.21" stroke="rgba(6, 59, 103, 1)" stroke-width="1.5"></path><path d="M1757.22 85.57L1705.01 226.66" stroke="rgba(6, 59, 103, 1)" stroke-width="1.5"></path><path d="M1757.22 85.57L1880.57 -69.64" stroke="rgba(6, 59, 103, 1)" stroke-width="1.5"></path><path d="M1757.22 85.57L1901.97 235.76" stroke="rgba(6, 59, 103, 1)" stroke-width="1.5"></path><path d="M1705.01 226.66L1705.01 226.66" stroke="rgba(6, 59, 103, 1)" stroke-width="1.5"></path><path d="M1705.01 226.66L1901.97 235.76" stroke="rgba(6, 59, 103, 1)" stroke-width="1.5"></path><path d="M1705.01 226.66L1875.76 81.21" stroke="rgba(6, 59, 103, 1)" stroke-width="1.5"></path><path d="M1880.57 -69.64L1880.57 -69.64" stroke="rgba(6, 59, 103, 1)" stroke-width="1.5"></path><path d="M1880.57 -69.64L1875.76 81.21" stroke="rgba(6, 59, 103, 1)" stroke-width="1.5"></path><path d="M1880.57 -69.64L2050.14 -88.9" stroke="rgba(6, 59, 103, 1)" stroke-width="1.5"></path><path d="M1880.57 -69.64L1996.36 58.34" stroke="rgba(6, 59, 103, 1)" stroke-width="1.5"></path><path d="M1875.76 81.21L1875.76 81.21" stroke="rgba(6, 59, 103, 1)" stroke-width="1.5"></path><path d="M1875.76 81.21L1996.36 58.34" stroke="rgba(6, 59, 103, 1)" stroke-width="1.5"></path><path d="M1875.76 81.21L1901.97 235.76" stroke="rgba(6, 59, 103, 1)" stroke-width="1.5"></path><path d="M1875.76 81.21L1999.91 205.52" stroke="rgba(6, 59, 103, 1)" stroke-width="1.5"></path><path d="M1901.97 235.76L1901.97 235.76" stroke="rgba(6, 59, 103, 1)" stroke-width="1.5"></path><path d="M1901.97 235.76L1999.91 205.52" stroke="rgba(6, 59, 103, 1)" stroke-width="1.5"></path><path d="M2050.14 -88.9L2050.14 -88.9" stroke="rgba(6, 59, 103, 1)" stroke-width="1.5"></path><path d="M2050.14 -88.9L1996.36 58.34" stroke="rgba(6, 59, 103, 1)" stroke-width="1.5"></path><path d="M1996.36 58.34L1996.36 58.34" stroke="rgba(6, 59, 103, 1)" stroke-width="1.5"></path><path d="M1996.36 58.34L1999.91 205.52" stroke="rgba(6, 59, 103, 1)" stroke-width="1.5"></path><path d="M1999.91 205.52L1999.91 205.52" stroke="rgba(6, 59, 103, 1)" stroke-width="1.5"></path><path d="M1999.91 205.52L1757.22 85.57" stroke="rgba(6, 59, 103, 1)" stroke-width="1.5"></path><path d="M1999.91 205.52L1705.01 226.66" stroke="rgba(6, 59, 103, 1)" stroke-width="1.5"></path><path d="M1999.91 205.52L2050.14 -88.9" stroke="rgba(6, 59, 103, 1)" stroke-width="1.5"></path><circle r="5" cx="-95.68" cy="110.65" fill="rgba(6, 59, 103, 1)"></circle><circle r="5" cx="-102.52" cy="207.36" fill="rgba(6, 59, 103, 1)"></circle><circle r="5" cx="240.55" cy="221.07" fill="rgba(6, 59, 103, 1)"></circle><circle r="5" cx="400.47" cy="232.46" fill="rgba(6, 59, 103, 1)"></circle><circle r="5" cx="507.29" cy="88.67" fill="rgba(6, 59, 103, 1)"></circle><circle r="5" cx="499.56" cy="229.78" fill="rgba(6, 59, 103, 1)"></circle><circle r="5" cx="648.57" cy="77.94" fill="rgba(6, 59, 103, 1)"></circle><circle r="5" cx="653.36" cy="205.44" fill="rgba(6, 59, 103, 1)"></circle><circle r="5" cx="812.54" cy="101.16" fill="rgba(6, 59, 103, 1)"></circle><circle r="5" cx="790.29" cy="239.69" fill="rgba(6, 59, 103, 1)"></circle><circle r="5" cx="1010.86" cy="90.37" fill="rgba(6, 59, 103, 1)"></circle><circle r="5" cx="937.58" cy="187.7" fill="rgba(6, 59, 103, 1)"></circle><circle r="5" cx="1133.06" cy="93.27" fill="rgba(6, 59, 103, 1)"></circle><circle r="5" cx="1106.9" cy="202.44" fill="rgba(6, 59, 103, 1)"></circle><circle r="5" cx="1263.23" cy="-93.74" fill="rgba(6, 59, 103, 1)"></circle><circle r="5" cx="1290.82" cy="93.63" fill="rgba(6, 59, 103, 1)"></circle><circle r="5" cx="1307.21" cy="197.22" fill="rgba(6, 59, 103, 1)"></circle><circle r="5" cx="1446.04" cy="-44.56" fill="rgba(6, 59, 103, 1)"></circle><circle r="5" cx="1434.81" cy="41.18" fill="rgba(6, 59, 103, 1)"></circle><circle r="5" cx="1434.45" cy="227.38" fill="rgba(6, 59, 103, 1)"></circle><circle r="5" cx="1549.87" cy="-55.04" fill="rgba(6, 59, 103, 1)"></circle><circle r="5" cx="1577.18" cy="77.61" fill="rgba(6, 59, 103, 1)"></circle><circle r="5" cx="1549.61" cy="204.17" fill="rgba(6, 59, 103, 1)"></circle><circle r="5" cx="1707.38" cy="-89.31" fill="rgba(6, 59, 103, 1)"></circle><circle r="5" cx="1757.22" cy="85.57" fill="rgba(6, 59, 103, 1)"></circle><circle r="5" cx="1705.01" cy="226.66" fill="rgba(6, 59, 103, 1)"></circle><circle r="5" cx="1880.57" cy="-69.64" fill="rgba(6, 59, 103, 1)"></circle><circle r="5" cx="1875.76" cy="81.21" fill="rgba(6, 59, 103, 1)"></circle><circle r="5" cx="1901.97" cy="235.76" fill="rgba(6, 59, 103, 1)"></circle><circle r="5" cx="2050.14" cy="-88.9" fill="rgba(6, 59, 103, 1)"></circle><circle r="5" cx="1996.36" cy="58.34" fill="rgba(6, 59, 103, 1)"></circle><circle r="5" cx="1999.91" cy="205.52" fill="rgba(6, 59, 103, 1)"></circle><path d="M-98.33 257.22L-98.33 257.22" stroke="hsl(207, 88.8%, 40.8%)" stroke-width="1.5"></path><path d="M-98.33 257.22L-47.4 97.38" stroke="hsl(207, 88.8%, 40.8%)" stroke-width="1.5"></path><path d="M-98.33 257.22L108.6 188.12" stroke="hsl(207, 88.8%, 40.8%)" stroke-width="1.5"></path><path d="M48.46 83.9L48.46 83.9" stroke="hsl(207, 88.8%, 40.8%)" stroke-width="1.5"></path><path d="M48.46 83.9L-47.4 97.38" stroke="hsl(207, 88.8%, 40.8%)" stroke-width="1.5"></path><path d="M48.46 83.9L108.6 188.12" stroke="hsl(207, 88.8%, 40.8%)" stroke-width="1.5"></path><path d="M48.46 83.9L231.84 99.6" stroke="hsl(207, 88.8%, 40.8%)" stroke-width="1.5"></path><path d="M48.46 83.9L235.69 189.91" stroke="hsl(207, 88.8%, 40.8%)" stroke-width="1.5"></path><path d="M235.69 189.91L235.69 189.91" stroke="hsl(207, 88.8%, 40.8%)" stroke-width="1.5"></path><path d="M235.69 189.91L231.84 99.6" stroke="hsl(207, 88.8%, 40.8%)" stroke-width="1.5"></path><path d="M235.69 189.91L347.97 220.85" stroke="hsl(207, 88.8%, 40.8%)" stroke-width="1.5"></path><path d="M235.69 189.91L108.6 188.12" stroke="hsl(207, 88.8%, 40.8%)" stroke-width="1.5"></path><path d="M235.69 189.91L395.97 85" stroke="hsl(207, 88.8%, 40.8%)" stroke-width="1.5"></path><path d="M235.69 189.91L521.28 204.43" stroke="hsl(207, 88.8%, 40.8%)" stroke-width="1.5"></path><path d="M646.01 253.35L646.01 253.35" stroke="hsl(207, 88.8%, 40.8%)" stroke-width="1.5"></path><path d="M646.01 253.35L521.28 204.43" stroke="hsl(207, 88.8%, 40.8%)" stroke-width="1.5"></path><path d="M646.01 253.35L798.62 220.72" stroke="hsl(207, 88.8%, 40.8%)" stroke-width="1.5"></path><path d="M646.01 253.35L663.38 92.82" stroke="hsl(207, 88.8%, 40.8%)" stroke-width="1.5"></path><path d="M959.64 95.9L959.64 95.9" stroke="hsl(207, 88.8%, 40.8%)" stroke-width="1.5"></path><path d="M959.64 95.9L1002.73 205.63" stroke="hsl(207, 88.8%, 40.8%)" stroke-width="1.5"></path><path d="M959.64 95.9L835.5 89.95" stroke="hsl(207, 88.8%, 40.8%)" stroke-width="1.5"></path><path d="M959.64 95.9L1090.28 64.65" stroke="hsl(207, 88.8%, 40.8%)" stroke-width="1.5"></path><path d="M959.64 95.9L1104.87 227.39" stroke="hsl(207, 88.8%, 40.8%)" stroke-width="1.5"></path><path d="M1731.53 228.21L1731.53 228.21" stroke="hsl(207, 88.8%, 40.8%)" stroke-width="1.5"></path><path d="M1731.53 228.21L1602.84 258.91" stroke="hsl(207, 88.8%, 40.8%)" stroke-width="1.5"></path><path d="M1731.53 228.21L1744.28 76.07" stroke="hsl(207, 88.8%, 40.8%)" stroke-width="1.5"></path><path d="M1731.53 228.21L1874.76 56.17" stroke="hsl(207, 88.8%, 40.8%)" stroke-width="1.5"></path><path d="M1731.53 228.21L1568.89 65.24" stroke="hsl(207, 88.8%, 40.8%)" stroke-width="1.5"></path><path d="M1874.76 56.17L1874.76 56.17" stroke="hsl(207, 88.8%, 40.8%)" stroke-width="1.5"></path><path d="M1874.76 56.17L1883.48 -68.76" stroke="hsl(207, 88.8%, 40.8%)" stroke-width="1.5"></path><path d="M1874.76 56.17L1744.28 76.07" stroke="hsl(207, 88.8%, 40.8%)" stroke-width="1.5"></path><path d="M1874.76 56.17L1998.19 -58.84" stroke="hsl(207, 88.8%, 40.8%)" stroke-width="1.5"></path><path d="M1874.76 56.17L2060.36 107.66" stroke="hsl(207, 88.8%, 40.8%)" stroke-width="1.5"></path><path d="M1874.76 56.17L1727.83 -87.8" stroke="hsl(207, 88.8%, 40.8%)" stroke-width="1.5"></path><path d="M1874.76 56.17L2037.45 189.81" stroke="hsl(207, 88.8%, 40.8%)" stroke-width="1.5"></path><path d="M-47.4 97.38L-47.4 97.38" stroke="hsl(207, 88.8%, 40.8%)" stroke-width="1.5"></path><path d="M-47.4 97.38L108.6 188.12" stroke="hsl(207, 88.8%, 40.8%)" stroke-width="1.5"></path><path d="M108.6 188.12L108.6 188.12" stroke="hsl(207, 88.8%, 40.8%)" stroke-width="1.5"></path><path d="M108.6 188.12L231.84 99.6" stroke="hsl(207, 88.8%, 40.8%)" stroke-width="1.5"></path><path d="M231.84 99.6L231.84 99.6" stroke="hsl(207, 88.8%, 40.8%)" stroke-width="1.5"></path><path d="M395.97 85L395.97 85" stroke="hsl(207, 88.8%, 40.8%)" stroke-width="1.5"></path><path d="M395.97 85L347.97 220.85" stroke="hsl(207, 88.8%, 40.8%)" stroke-width="1.5"></path><path d="M395.97 85L231.84 99.6" stroke="hsl(207, 88.8%, 40.8%)" stroke-width="1.5"></path><path d="M347.97 220.85L347.97 220.85" stroke="hsl(207, 88.8%, 40.8%)" stroke-width="1.5"></path><path d="M521.28 204.43L521.28 204.43" stroke="hsl(207, 88.8%, 40.8%)" stroke-width="1.5"></path><path d="M521.28 204.43L395.97 85" stroke="hsl(207, 88.8%, 40.8%)" stroke-width="1.5"></path><path d="M663.38 92.82L663.38 92.82" stroke="hsl(207, 88.8%, 40.8%)" stroke-width="1.5"></path><path d="M663.38 92.82L835.5 89.95" stroke="hsl(207, 88.8%, 40.8%)" stroke-width="1.5"></path><path d="M663.38 92.82L521.28 204.43" stroke="hsl(207, 88.8%, 40.8%)" stroke-width="1.5"></path><path d="M835.5 89.95L835.5 89.95" stroke="hsl(207, 88.8%, 40.8%)" stroke-width="1.5"></path><path d="M835.5 89.95L798.62 220.72" stroke="hsl(207, 88.8%, 40.8%)" stroke-width="1.5"></path><path d="M835.5 89.95L1002.73 205.63" stroke="hsl(207, 88.8%, 40.8%)" stroke-width="1.5"></path><path d="M835.5 89.95L646.01 253.35" stroke="hsl(207, 88.8%, 40.8%)" stroke-width="1.5"></path><path d="M835.5 89.95L1090.28 64.65" stroke="hsl(207, 88.8%, 40.8%)" stroke-width="1.5"></path><path d="M798.62 220.72L798.62 220.72" stroke="hsl(207, 88.8%, 40.8%)" stroke-width="1.5"></path><path d="M1002.73 205.63L1002.73 205.63" stroke="hsl(207, 88.8%, 40.8%)" stroke-width="1.5"></path><path d="M1002.73 205.63L1104.87 227.39" stroke="hsl(207, 88.8%, 40.8%)" stroke-width="1.5"></path><path d="M1090.28 64.65L1090.28 64.65" stroke="hsl(207, 88.8%, 40.8%)" stroke-width="1.5"></path><path d="M1090.28 64.65L1247.22 90.72" stroke="hsl(207, 88.8%, 40.8%)" stroke-width="1.5"></path><path d="M1090.28 64.65L1104.87 227.39" stroke="hsl(207, 88.8%, 40.8%)" stroke-width="1.5"></path><path d="M1090.28 64.65L1002.73 205.63" stroke="hsl(207, 88.8%, 40.8%)" stroke-width="1.5"></path><path d="M1090.28 64.65L1282.55 215.79" stroke="hsl(207, 88.8%, 40.8%)" stroke-width="1.5"></path><path d="M1104.87 227.39L1104.87 227.39" stroke="hsl(207, 88.8%, 40.8%)" stroke-width="1.5"></path><path d="M1104.87 227.39L1282.55 215.79" stroke="hsl(207, 88.8%, 40.8%)" stroke-width="1.5"></path><path d="M1104.87 227.39L1247.22 90.72" stroke="hsl(207, 88.8%, 40.8%)" stroke-width="1.5"></path><path d="M1104.87 227.39L1394.09 250.53" stroke="hsl(207, 88.8%, 40.8%)" stroke-width="1.5"></path><path d="M1247.22 90.72L1247.22 90.72" stroke="hsl(207, 88.8%, 40.8%)" stroke-width="1.5"></path><path d="M1247.22 90.72L1282.55 215.79" stroke="hsl(207, 88.8%, 40.8%)" stroke-width="1.5"></path><path d="M1247.22 90.72L1388.26 93.69" stroke="hsl(207, 88.8%, 40.8%)" stroke-width="1.5"></path><path d="M1247.22 90.72L1394.09 250.53" stroke="hsl(207, 88.8%, 40.8%)" stroke-width="1.5"></path><path d="M1282.55 215.79L1282.55 215.79" stroke="hsl(207, 88.8%, 40.8%)" stroke-width="1.5"></path><path d="M1282.55 215.79L1394.09 250.53" stroke="hsl(207, 88.8%, 40.8%)" stroke-width="1.5"></path><path d="M1282.55 215.79L1388.26 93.69" stroke="hsl(207, 88.8%, 40.8%)" stroke-width="1.5"></path><path d="M1388.26 93.69L1388.26 93.69" stroke="hsl(207, 88.8%, 40.8%)" stroke-width="1.5"></path><path d="M1388.26 93.69L1394.09 250.53" stroke="hsl(207, 88.8%, 40.8%)" stroke-width="1.5"></path><path d="M1388.26 93.69L1568.89 65.24" stroke="hsl(207, 88.8%, 40.8%)" stroke-width="1.5"></path><path d="M1394.09 250.53L1394.09 250.53" stroke="hsl(207, 88.8%, 40.8%)" stroke-width="1.5"></path><path d="M1394.09 250.53L1602.84 258.91" stroke="hsl(207, 88.8%, 40.8%)" stroke-width="1.5"></path><path d="M1603.81 -74.56L1603.81 -74.56" stroke="hsl(207, 88.8%, 40.8%)" stroke-width="1.5"></path><path d="M1603.81 -74.56L1727.83 -87.8" stroke="hsl(207, 88.8%, 40.8%)" stroke-width="1.5"></path><path d="M1603.81 -74.56L1568.89 65.24" stroke="hsl(207, 88.8%, 40.8%)" stroke-width="1.5"></path><path d="M1603.81 -74.56L1744.28 76.07" stroke="hsl(207, 88.8%, 40.8%)" stroke-width="1.5"></path><path d="M1603.81 -74.56L1388.26 93.69" stroke="hsl(207, 88.8%, 40.8%)" stroke-width="1.5"></path><path d="M1603.81 -74.56L1883.48 -68.76" stroke="hsl(207, 88.8%, 40.8%)" stroke-width="1.5"></path><path d="M1568.89 65.24L1568.89 65.24" stroke="hsl(207, 88.8%, 40.8%)" stroke-width="1.5"></path><path d="M1568.89 65.24L1744.28 76.07" stroke="hsl(207, 88.8%, 40.8%)" stroke-width="1.5"></path><path d="M1568.89 65.24L1602.84 258.91" stroke="hsl(207, 88.8%, 40.8%)" stroke-width="1.5"></path><path d="M1568.89 65.24L1727.83 -87.8" stroke="hsl(207, 88.8%, 40.8%)" stroke-width="1.5"></path><path d="M1602.84 258.91L1602.84 258.91" stroke="hsl(207, 88.8%, 40.8%)" stroke-width="1.5"></path><path d="M1602.84 258.91L1744.28 76.07" stroke="hsl(207, 88.8%, 40.8%)" stroke-width="1.5"></path><path d="M1727.83 -87.8L1727.83 -87.8" stroke="hsl(207, 88.8%, 40.8%)" stroke-width="1.5"></path><path d="M1727.83 -87.8L1883.48 -68.76" stroke="hsl(207, 88.8%, 40.8%)" stroke-width="1.5"></path><path d="M1727.83 -87.8L1744.28 76.07" stroke="hsl(207, 88.8%, 40.8%)" stroke-width="1.5"></path><path d="M1744.28 76.07L1744.28 76.07" stroke="hsl(207, 88.8%, 40.8%)" stroke-width="1.5"></path><path d="M1744.28 76.07L1883.48 -68.76" stroke="hsl(207, 88.8%, 40.8%)" stroke-width="1.5"></path><path d="M1883.48 -68.76L1883.48 -68.76" stroke="hsl(207, 88.8%, 40.8%)" stroke-width="1.5"></path><path d="M1883.48 -68.76L1998.19 -58.84" stroke="hsl(207, 88.8%, 40.8%)" stroke-width="1.5"></path><path d="M1998.19 -58.84L1998.19 -58.84" stroke="hsl(207, 88.8%, 40.8%)" stroke-width="1.5"></path><path d="M1998.19 -58.84L2060.36 107.66" stroke="hsl(207, 88.8%, 40.8%)" stroke-width="1.5"></path><path d="M2060.36 107.66L2060.36 107.66" stroke="hsl(207, 88.8%, 40.8%)" stroke-width="1.5"></path><path d="M2060.36 107.66L2037.45 189.81" stroke="hsl(207, 88.8%, 40.8%)" stroke-width="1.5"></path><path d="M2037.45 189.81L2037.45 189.81" stroke="hsl(207, 88.8%, 40.8%)" stroke-width="1.5"></path><circle r="25" cx="-98.33" cy="257.22" fill="url(#SvgjsRadialGradient1007)"></circle><circle r="25" cx="48.46" cy="83.9" fill="url(#SvgjsRadialGradient1007)"></circle><circle r="25" cx="235.69" cy="189.91" fill="url(#SvgjsRadialGradient1007)"></circle><circle r="25" cx="646.01" cy="253.35" fill="url(#SvgjsRadialGradient1007)"></circle><circle r="25" cx="959.64" cy="95.9" fill="url(#SvgjsRadialGradient1007)"></circle><circle r="25" cx="1731.53" cy="228.21" fill="url(#SvgjsRadialGradient1007)"></circle><circle r="25" cx="1874.76" cy="56.17" fill="url(#SvgjsRadialGradient1007)"></circle><circle r="5" cx="-47.4" cy="97.38" fill="#84abcb"></circle><circle r="5" cx="108.6" cy="188.12" fill="#84abcb"></circle><circle r="5" cx="231.84" cy="99.6" fill="#84abcb"></circle><circle r="5" cx="395.97" cy="85" fill="#84abcb"></circle><circle r="5" cx="347.97" cy="220.85" fill="#84abcb"></circle><circle r="5" cx="521.28" cy="204.43" fill="#84abcb"></circle><circle r="5" cx="663.38" cy="92.82" fill="#84abcb"></circle><circle r="5" cx="835.5" cy="89.95" fill="#84abcb"></circle><circle r="5" cx="798.62" cy="220.72" fill="#84abcb"></circle><circle r="5" cx="1002.73" cy="205.63" fill="#84abcb"></circle><circle r="5" cx="1090.28" cy="64.65" fill="#84abcb"></circle><circle r="5" cx="1104.87" cy="227.39" fill="#84abcb"></circle><circle r="5" cx="1247.22" cy="90.72" fill="#84abcb"></circle><circle r="5" cx="1282.55" cy="215.79" fill="#84abcb"></circle><circle r="5" cx="1388.26" cy="93.69" fill="#84abcb"></circle><circle r="5" cx="1394.09" cy="250.53" fill="#84abcb"></circle><circle r="5" cx="1603.81" cy="-74.56" fill="#84abcb"></circle><circle r="5" cx="1568.89" cy="65.24" fill="#84abcb"></circle><circle r="5" cx="1602.84" cy="258.91" fill="#84abcb"></circle><circle r="5" cx="1727.83" cy="-87.8" fill="#84abcb"></circle><circle r="5" cx="1744.28" cy="76.07" fill="#84abcb"></circle><circle r="5" cx="1883.48" cy="-68.76" fill="#84abcb"></circle><circle r="5" cx="1998.19" cy="-58.84" fill="#84abcb"></circle><circle r="5" cx="2060.36" cy="107.66" fill="#84abcb"></circle><circle r="5" cx="2037.45" cy="189.81" fill="#84abcb"></circle></g><defs><mask id="SvgjsMask1006"><rect width="1920" height="100" fill="#ffffff"></rect></mask><radialGradient id="SvgjsRadialGradient1007"><stop stop-color="#ffffff" offset="0.1"></stop><stop stop-color="rgba(9, 87, 151, 1)" offset="0.2"></stop><stop stop-color="rgba(9, 87, 151, 0)" offset="1"></stop></radialGradient></defs></svg>