<svg xmlns="http://www.w3.org/2000/svg" version="1.1" xmlns:xlink="http://www.w3.org/1999/xlink" xmlns:svgjs="http://svgjs.com/svgjs" width="1920" height="1080" preserveAspectRatio="none" viewBox="0 0 1920 1080"><g mask="url(&quot;#SvgjsMask1032&quot;)" fill="none"><path d="M0 350.06L10 306.6L20 409.78L30 318.77L40 202.66L50 267.28L60 198.65L70 85.37L80 135.83L90 206.49L100 204.46L110 263.43L120 378.41L130 418.98L140 386.63L150 501.33L160 545.32L170 620.83L180 739.19L190 641.87L200 539.38L210 542.36L220 437.46L230 441.82L240 432.72L250 493.17L260 479.22L270 480.87L280 594.47L290 468.12L300 536.44L310 464.53L320 587.13L330 507.99L340 465.63L350 594.39L360 480.24L370 379.43L380 370.82L390 404.95L400 281.47L410 209.26L420 146.19L430 113.1L440 210.46L450 322.24L460 452.32L470 399.53L480 330.36L490 303.71L500 360.83L510 251.4L520 268.49L530 308.56L540 375.31L550 245.15L560 363.61L570 447.77L580 553.34L590 660.21L600 657.4L610 684.66L620 752.18L630 710.8L640 585.98L650 526.23L660 554.17L670 514.88L680 501.96L690 545.01L700 632.17L710 697.05L720 623.16L730 639.25L740 771.96L750 825.73L760 707.22L770 740.69L780 808.13L790 830.33L800 776.36L810 796.75L820 722.98L830 712.23L840 716.2L850 690.36L860 565.9L870 566.06L880 520.01L890 510.16L900 641.46L910 621.78L920 495.22L930 524.22L940 511.72L950 556.45L960 464.94L970 356.05L980 332.71L990 219.81L1000 97.41L1010 39.23L1020 69.58L1030 43L1040 90.96L1050 168.85L1060 290.26L1070 330.45L1080 440.35L1090 508.65L1100 375.53L1110 372.01L1120 317.08L1130 284.11L1140 324.81L1150 328.23L1160 295.91L1170 305.48L1180 367.68L1190 422.93L1200 393.45L1210 335.01L1220 434.11L1230 370.9L1240 415.94L1250 477.23L1260 419.35L1270 362.62L1280 272.68L1290 358.89L1300 462.59L1310 359.87L1320 428.96L1330 509.96L1340 536.81L1350 510.86L1360 576.49L1370 460.76L1380 512.88L1390 645.67L1400 768.51L1410 715.35L1420 647.57L1430 753.82L1440 771.78L1450 801.85L1460 730.07L1470 852.33L1480 856.53L1490 915.1L1500 915.48L1510 850.33L1520 967.75L1530 1022.14L1540 1002.37L1550 1061.3L1560 1003.39L1570 887.12L1580 958.88L1590 1039.2L1600 1075.99L1610 988.15L1620 1057.44L1630 1022.77L1640 1046.4L1650 940.66L1660 988.1L1670 922.73L1680 884.65L1690 1015.01L1700 928.22L1710 814.23L1720 930.38L1730 811.91L1740 759.57L1750 834.44L1760 889.4L1770 920.22L1780 791.31L1790 770.15L1800 791.47L1810 667.56L1820 616.77L1830 715.63L1840 625.34L1850 552.46L1860 613.72L1870 541.85L1880 639.9L1890 761.8L1900 742.13L1910 677.51L1920 699.76" stroke="rgba(9, 87, 151, 1)" stroke-width="2"></path><path d="M0 350.06L10 306.6L20 409.78L30 318.77L40 202.66L50 267.28L60 198.65L70 85.37L80 135.83L90 206.49L100 204.46L110 263.43L120 378.41L130 418.98L140 386.63L150 501.33L160 545.32L170 620.83L180 739.19L190 641.87L200 539.38L210 542.36L220 437.46L230 441.82L240 432.72L250 493.17L260 479.22L270 480.87L280 594.47L290 468.12L300 536.44L310 464.53L320 587.13L330 507.99L340 465.63L350 594.39L360 480.24L370 379.43L380 370.82L390 404.95L400 281.47L410 209.26L420 146.19L430 113.1L440 210.46L450 322.24L460 452.32L470 399.53L480 330.36L490 303.71L500 360.83L510 251.4L520 268.49L530 308.56L540 375.31L550 245.15L560 363.61L570 447.77L580 553.34L590 660.21L600 657.4L610 684.66L620 752.18L630 710.8L640 585.98L650 526.23L660 554.17L670 514.88L680 501.96L690 545.01L700 632.17L710 697.05L720 623.16L730 639.25L740 771.96L750 825.73L760 707.22L770 740.69L780 808.13L790 830.33L800 776.36L810 796.75L820 722.98L830 712.23L840 716.2L850 690.36L860 565.9L870 566.06L880 520.01L890 510.16L900 641.46L910 621.78L920 495.22L930 524.22L940 511.72L950 556.45L960 464.94L970 356.05L980 332.71L990 219.81L1000 97.41L1010 39.23L1020 69.58L1030 43L1040 90.96L1050 168.85L1060 290.26L1070 330.45L1080 440.35L1090 508.65L1100 375.53L1110 372.01L1120 317.08L1130 284.11L1140 324.81L1150 328.23L1160 295.91L1170 305.48L1180 367.68L1190 422.93L1200 393.45L1210 335.01L1220 434.11L1230 370.9L1240 415.94L1250 477.23L1260 419.35L1270 362.62L1280 272.68L1290 358.89L1300 462.59L1310 359.87L1320 428.96L1330 509.96L1340 536.81L1350 510.86L1360 576.49L1370 460.76L1380 512.88L1390 645.67L1400 768.51L1410 715.35L1420 647.57L1430 753.82L1440 771.78L1450 801.85L1460 730.07L1470 852.33L1480 856.53L1490 915.1L1500 915.48L1510 850.33L1520 967.75L1530 1022.14L1540 1002.37L1550 1061.3L1560 1003.39L1570 887.12L1580 958.88L1590 1039.2L1600 1075.99L1610 988.15L1620 1057.44L1630 1022.77L1640 1046.4L1650 940.66L1660 988.1L1670 922.73L1680 884.65L1690 1015.01L1700 928.22L1710 814.23L1720 930.38L1730 811.91L1740 759.57L1750 834.44L1760 889.4L1770 920.22L1780 791.31L1790 770.15L1800 791.47L1810 667.56L1820 616.77L1830 715.63L1840 625.34L1850 552.46L1860 613.72L1870 541.85L1880 639.9L1890 761.8L1900 742.13L1910 677.51L1920 699.76L1920 1080L0 1080z" fill="url(#SvgjsLinearGradient1033)"></path></g><defs><mask id="SvgjsMask1032"><rect width="1920" height="1080" fill="#ffffff"></rect></mask><linearGradient x1="50%" y1="0%" x2="50%" y2="100%" id="SvgjsLinearGradient1033"><stop stop-opacity="0.65" stop-color="rgba(9, 87, 151, 1)" offset="0"></stop><stop stop-opacity="0" stop-color="#3aa0f3" offset="0.8"></stop></linearGradient></defs></svg>